
		<svg xmlns="http://www.w3.org/2000/svg" xmlns:xlink="http://www.w3.org/1999/xlink" version="1.1" width="3018.957345971564" height="1172.511848341232">
			
			<g transform="scale(0.9478672985781991) translate(10, 10)">
				

<g id="SvgjsG4268" transform="matrix(1,0,0,1,0,0)">
</g>
<g id="1536089361522" rel="main_text">
	<path class="st0" d="M1676.5,582.1l-32-11.4c-13.1-4.8-19.6-11.4-19.6-19.6c0-4.8,1.8-8.8,5.4-11.9c3.6-3.1,8.9-4.6,15.7-4.6   c19.3,0,43.4,6.5,72.3,19.6c6.5-4.8,12-13,16.5-24.5c4.5-11.5,6.4-22.1,5.7-31.8c-11.7-5.9-26.7-10.9-44.9-15.2s-34.9-6.5-50.1-6.5   c-30.6,0-55,7.7-73.1,23s-27.1,36.1-27.1,62.2c0,35.8,21.5,61.6,64.5,77.5l28.4,10.8c15.8,5.2,23.8,12.9,23.8,23.2   c0,5.5-2.6,9.9-7.7,13.2c-5.2,3.3-12.6,4.9-22.2,4.9c-20.3,0-44.2-7.2-71.8-21.7c-5.9,6.2-10.9,14.6-15.2,25.3s-6.6,20.5-7,29.4   c30,16.9,62.5,25.3,97.6,25.3c35.1,0,62.1-7.6,81.1-22.7s28.4-35.6,28.4-61.5C1745.1,626,1722.2,598.3,1676.5,582.1z" style="fill: #67288C;"/>
	<path class="st0" d="M1231.1,512.9c-7.7-11.7-17.1-20.7-28.1-27.1c-11-6.4-23.8-9.6-38.2-9.6c-28.2,0-52.2,9.8-71.8,29.4   c-9.6-16.9-24.3-25.3-43.9-25.3h-21.2l-3.6,3.6v365.6l3.6,3.6h31c16.5,0,28.1-3.6,34.6-10.8c6.5-7.2,9.8-19.8,9.8-37.7V736   c15.8,7.2,31.7,10.8,47.5,10.8v0c14.8,0,28.5-3.2,41.1-9.6c12.6-6.4,23.5-15.4,32.8-27.1c9.3-11.7,16.6-26,21.9-42.9   c5.3-16.9,8-35.6,8-56.3c0-20.7-2-39.2-5.9-55.8C1244.7,538.8,1238.8,524.7,1231.1,512.9z M1136.8,687c-9.3,0-20.5-4-33.6-11.9   V561.5c10.7-13.8,23.2-20.7,37.7-20.7c20.7,0,31,22.7,31,68.2C1171.9,661,1160.2,687,1136.8,687z" style="fill: #67288C;"/>
	<path class="st0" d="M1480.7,480.9c-14.1,0-25.3,1.2-33.6,3.6l-44.9,200.4c-2.4,0-3.8-1.2-4.1-3.6c-5.5-36.1-9.5-58.9-11.9-68.2   l-23.8-99.1c-3.1-12.7-7.8-21.7-14.2-26.9c-6.4-5.2-16.4-7.7-30.2-7.7c-13.8,0-28.6,3.6-44.4,10.8l59.9,222.6   c5.9,21.7,23.8,32.5,53.7,32.5l-2.1,7.2c-8.3,27.9-25.1,41.8-50.6,41.8c-15.5,0-31-2.6-46.5-7.7c-5.5,6.2-9.8,15.1-12.9,26.6   c-3.1,11.5-4.1,21.9-3.1,31.2c20.7,6.9,41.5,10.3,62.5,10.3c39.2,0,68.3-11.4,87.3-34.1c16.5-20,29.8-48.5,39.8-85.7l63.5-242.7   l-3.1-5.7C1510.4,482.8,1496.6,480.9,1480.7,480.9z" style="fill: #67288C;"/>
	<path class="st0" d="M2609.6,582.1l-32-11.4c-13.1-4.8-19.6-11.4-19.6-19.6c0-4.8,1.8-8.8,5.4-11.9c3.6-3.1,8.9-4.6,15.8-4.6   c19.3,0,43.4,6.5,72.3,19.6c6.5-4.8,12-13,16.5-24.5c4.5-11.5,6.4-22.1,5.7-31.8c-11.7-5.9-26.7-10.9-44.9-15.2s-34.9-6.5-50.1-6.5   c-30.6,0-55,7.7-73.1,23c-18.1,15.3-27.1,36.1-27.1,62.2c0,35.8,21.5,61.6,64.5,77.5l28.4,10.8c15.8,5.2,23.8,12.9,23.8,23.2   c0,5.5-2.6,9.9-7.7,13.2c-5.2,3.3-12.6,4.9-22.2,4.9c-20.3,0-44.2-7.2-71.8-21.7c-5.9,6.2-10.9,14.6-15.2,25.3   c-4.3,10.7-6.6,20.5-7,29.4h0c30,16.9,62.5,25.3,97.6,25.3c35.1,0,62.1-7.6,81.1-22.7s28.4-35.6,28.4-61.5   C2678.3,626,2655.4,598.3,2609.6,582.1z" style="fill: #67288C;"/>
	<path class="st0" d="M2431.4,671V566.1c0-15.5-2.5-28.8-7.5-40c-5-11.2-11.7-20.3-20.1-27.4c-8.4-7.1-18.2-12.3-29.4-15.7   c-11.2-3.4-22.8-5.2-34.9-5.2c-8.3,0-17.6,0.6-27.9,1.8c-10.3,1.2-20.8,2.8-31.5,4.9c-10.7,2.1-21.1,4.5-31.2,7.2   c-10.2,2.8-19.4,5.7-27.6,8.8c2.8,25.5,9.3,44.2,19.6,56.3c36.1-11,61.5-16.5,75.9-16.5c22.4,0,33.6,10.8,33.6,32.5v9.8   c-4.5-0.3-9.7-0.6-15.7-0.8c-6-0.2-13-0.3-20.9-0.3c-14.1,0-27.4,1.9-39.8,5.7c-12.4,3.8-23.2,9.4-32.5,16.8   c-9.3,7.4-16.6,16.7-21.9,27.9c-5.3,11.2-8,24.2-8,39c0,10.3,1.7,20.2,5.2,29.7s8.6,17.8,15.5,25c6.9,7.2,15.3,13,25.3,17.3   c10,4.3,21.7,6.5,35.1,6.5c26.2,0,50.4-10.3,72.8-31c13.1,17.6,31.7,26.7,55.8,27.4c5.2-3.8,10.2-9.8,15-18.1   c4.8-8.3,8.1-16,9.8-23.2l0,0C2436.2,698,2431.4,686.8,2431.4,671z M2350.3,675.1c-12,10-22.9,15-32.5,15   c-18.6,0-27.9-8.1-27.9-24.3h0c0-22,10.8-33,32.5-33c2.4,0,5.9,0.1,10.6,0.3c4.6,0.2,10.4,0.4,17.3,0.8V675.1z" style="fill: #67288C;"/>
	<path class="st0" d="M2940.6,677.2V571.3l0,0c0-27.9-6.3-50.2-18.8-66.9c-12.6-16.7-30.4-25-53.4-25c-23.1,0-46.1,9.5-69.2,28.4   v-97.6c0-17.9-3.2-30.5-9.6-37.7s-17.8-10.8-34.3-10.8h-31l-3.6,3.6v376.4c11.4,2.1,24.4,3.1,39.2,3.1s27.9-1,39.2-3.1V569.2   c6.9-6.2,13.6-10.7,20.1-13.4c6.5-2.8,12.4-4.1,17.6-4.1c9,0,15,2.8,18.1,8.3c3.1,5.5,4.6,14.1,4.6,25.8v110   c0,16.9,3.3,29.4,9.8,37.7c6.5,8.3,18.8,12.4,36.7,12.4c18.6,0,34.4-5.9,47.5-17.6C2944.9,717.3,2940.6,700.2,2940.6,677.2z" style="fill: #67288C;"/>
	<path class="st0" d="M2166,682.8c-15.1,0-22.7-8.1-22.7-24.3V410.2c0-17.9-3.3-30.5-9.8-37.7s-17.9-10.8-34.1-10.8h-31.5l-3.1,3.6   v307.3c0,24.8,4.9,42.9,14.7,54.5c9.8,11.5,26.4,17.3,49.8,17.3c16.2,0,34.6-1.7,55.3-5.2c1-3.4,1.5-10.8,1.5-22.2   s-2.1-22.7-6.2-34.1H2166z" style="fill: #67288C;"/>
	<path class="st0" d="M1994.3,512.9c-7.7-11.7-17.1-20.7-28.1-27.1c-11-6.4-23.8-9.6-38.2-9.6c-28.2,0-52.2,9.8-71.8,29.4   c-9.6-16.9-24.3-25.3-43.9-25.3h-21.2l-3.6,3.6v365.6l3.6,3.6h31c16.5,0,28.1-3.6,34.6-10.8c6.5-7.2,9.8-19.8,9.8-37.7V736   c15.8,7.2,31.7,10.8,47.5,10.8v0c14.8,0,28.5-3.2,41.1-9.6s23.5-15.4,32.8-27.1c9.3-11.7,16.6-26,21.9-42.9c5.3-16.9,8-35.6,8-56.3   c0-20.7-2-39.2-5.9-55.8C2007.9,538.8,2002,524.7,1994.3,512.9z M1900.1,687c-9.3,0-20.5-4-33.6-11.9V561.5   c10.7-13.8,23.2-20.7,37.7-20.7c20.7,0,31,22.7,31,68.2C1935.2,661,1923.5,687,1900.1,687z" style="fill: #67288C;"/>
</g>
<g id="1536089363040" rel="symbol">
	<linearGradient id="SVGID_1_" gradientUnits="userSpaceOnUse" x1="393.8917" y1="631.7686" x2="827.72" y2="631.7686">
		<stop offset="0" style="stop-color:#15FF7F"/>
		<stop offset="1" style="stop-color:#74CFFF"/>
	</linearGradient>
	<path class="st1" d="M827.7,808.7C775.8,864.1,697,893,621.6,884.4c-146.7-16.8-251.5-170.3-223-313.3   c13.2-66.1,55-126.5,113.6-159.9c69.2-39.5,154.6-39.5,232.7-23.6c-70.4-6.3-143,18.3-195,66.2c-52,47.9-82.5,118.3-81.9,189   c3.3-77.8,56.4-150.2,128.2-180.6c71.7-30.4,158.4-19.3,222.7,24.6c-67.2-33.6-153.7-24.1-211.9,23.4   c-58.2,47.5-85,130.3-65.6,202.8c-11.2-62.4,12.6-129.9,60.5-171.4c47.9-41.5,118.1-55.6,178.2-35.6   c-67.1-11.3-139.4,25-170.5,85.5C578.3,652,590.9,732,639.1,780c15.5,15.4,34.3,27.2,54.7,34.9c-0.8,0.4-1.6,0.8-2.3,1.1   c-4.1,2-7.8,3.9-10.9,5.5l1.4-0.4l12.4-3.9l3-1c2.7,1,5.4,1.8,8.1,2.7l-3.4,1.1l-18.8,5.9l-6,1.9c24.6,3,47.5,2.8,68.5,0.5   c5.9-0.7,11.6-1.5,17.1-2.4C785.5,824.8,807.7,819.1,827.7,808.7z" style="fill: url(#SVGID_1_);"/>
	<path class="st2" d="M865.9,636.4c-1.5-2.5-5.4-5.1-14.9-2.9c-8.4,2-19.5,7.5-30.7,15.5c-8.5,6-14.9,10-18.9,10.9   c-4.2,1-6.4-0.9-9.8-8.8c-1.5-3.4-4.4-7.4-7.4-11.5c-6.7-9.5-14.5-20.1-9.9-29.6l2.2-5.6c1.2-2.5,0.9-5.5-1.2-7.7   c-2.5-3.2-7.1-4.7-10.9-3.8c-0.8,0.2-1.6,0.6-2.4,1c-0.2,0-0.6,0.4-0.7,0.6c-2.6,2-26.1,20.8-9.1,73.9c0.1,0.2,0.1,0.2,0.1,0.4   c0,0,1,1.5,0.1,3.3c-0.6,1.3-3.1,3.8-10.8,5.7c-3.4,0.8-6.9,1.6-10,2.6c-3.4,0.8-6.7,1.8-10,2.6c-8.6,2-18.8,3.8-28.7,1.3   c-2.3-0.6-4.6-0.7-6.3-0.3c-3.8,0.9-6,3.9-6.1,8.1c-0.1,7.1,6.1,16.5,17.9,19.7c17.6,4.9,38.4,6,52,2.7c1.3-0.3,2.3-0.6,3.5-1.1   c1.4,0.3,3.5,2.5,3.4,8.9c-0.1,1.6,0,3.8,0.1,6.2c0.4,11,0.8,29.5-4.3,38c-2.1,3.4-4.5,6.2-6.8,8.7c-3.7,4-6.5,7.3-5.9,10.7   c0.2,1.9,1.7,3.4,4,4.8c1.6,1,3.8,1.1,6.3,0.5c15.7-3.7,44.7-32.1,44.3-73c3.4,2.3,19.1,12.5,39.3,20.8c5.9,2.4,10.6,6.6,13.7,11.8   c1.1,1.9,1.7,3.6,2.1,5c0.8,3.6,4.7,6,8.5,5.1c0.7-0.2,1.5-0.5,2.4-1.1c0.8-0.6,1.7-1.5,2.5-2.8c1.8-2.8,3.1-8.5,0.3-19.1   c-4.1-15.4-17.4-26.9-27.2-35.2c-5.3-4.5-10.3-8.9-10.7-11.4c-0.6-3.4,3.6-8.2,8.5-13.5c5.1-5.6,11.6-12.9,14.8-21.5   c3.5-8.6,8.9-11.2,12.7-12.8c2.2-1,4-1.8,4.5-3.5C867.3,638.7,866.6,637.4,865.9,636.4z" style="fill: #9B60C6;"/>
	<path class="st0" d="M707.8,849.1c-0.8,0.1-1.6,0.1-2.4,0.2l-4.8,0.4l-4.8,0.4c-1.6,0.1-3.2,0.1-4.8,0.2l-4.8,0.1   c-1.6,0-3.2,0.1-4.8,0l-9.7-0.2c-3.2-0.2-6.4-0.5-9.6-0.7c-3.2-0.2-6.4-0.6-9.6-1l-4.8-0.6c-1.6-0.2-3.2-0.5-4.8-0.8l-4.8-0.8   c-1.6-0.3-3.2-0.5-4.7-0.9l-9.4-2.1c-6.2-1.7-12.4-3.2-18.5-5.4l-4.6-1.5c-1.5-0.5-3-1.1-4.5-1.7l-4.5-1.7l-2.3-0.9   c-0.7-0.3-1.5-0.6-2.2-0.9l-8.8-3.9l-8.6-4.3c-11.4-5.9-22.4-12.6-32.8-20.1c-10.4-7.5-20.1-15.9-29.2-25l-3.4-3.4   c-1.1-1.1-2.3-2.3-3.3-3.5l-6.4-7.2l-6-7.5l-1.5-1.9l-1.4-1.9l-2.8-3.9c-0.9-1.3-1.9-2.6-2.8-3.9l-2.6-4c-1.7-2.7-3.6-5.3-5.1-8.2   c-1.6-2.8-3.2-5.5-4.7-8.4l-4.3-8.6c-5.5-11.6-10-23.6-13.6-35.9c-3.4-12.3-5.7-25-7.1-37.7c-2.5-25.5-1-51.4,4.6-76.5   c2.6-12.6,6.6-24.8,11-36.9l3.7-8.9c0.6-1.5,1.2-3,1.9-4.4l2.1-4.3c1.4-2.9,2.8-5.8,4.2-8.7l4.7-8.4c0.8-1.4,1.5-2.8,2.4-4.2   l2.6-4.1c1.7-2.7,3.4-5.5,5.2-8.2l5.6-7.9c0.9-1.3,1.9-2.6,2.8-3.9l3-3.7l6.1-7.5l6.6-7.1l3.3-3.6l3.5-3.4l7-6.7l-7.2,6.5l-3.6,3.3   l-3.4,3.5l-6.7,7l-6.3,7.4l-3.2,3.7c-1,1.3-2,2.6-2.9,3.9l-5.8,7.8c-1.8,2.7-3.6,5.4-5.4,8.1l-2.7,4.1c-0.9,1.4-1.6,2.8-2.5,4.2   l-4.9,8.4c-1.5,2.9-2.9,5.8-4.4,8.7l-2.2,4.4c-0.7,1.4-1.3,3-2,4.4l-3.9,8.9c-4.6,12.1-8.9,24.4-11.7,37.1   c-6.1,25.3-7.7,51.6-5.4,77.5c0.1,0.8,0.1,1.6,0.2,2.4l0.3,2.4l0.7,4.8l0.7,4.8c0.3,1.6,0.6,3.2,0.9,4.8l0.9,4.8   c0.3,1.6,0.6,3.2,1,4.8l2.4,9.5c3.6,12.5,8.2,24.8,13.7,36.6l4.4,8.7c1.6,2.9,3.2,5.7,4.8,8.5c1.6,2.9,3.4,5.5,5.2,8.3l2.7,4.1   c0.9,1.3,1.9,2.6,2.9,4l2.9,4l1.4,2l1.5,1.9l6.1,7.6l6.5,7.3c1.1,1.2,2.2,2.4,3.4,3.5l3.4,3.5c9.3,9.1,19.2,17.6,29.8,25.2   c10.6,7.5,21.8,14.2,33.5,20l8.8,4.2l9,3.8c0.8,0.3,1.5,0.6,2.3,0.9l2.3,0.8l4.6,1.7c1.5,0.5,3,1.1,4.6,1.6l4.7,1.4   c6.2,2,12.5,3.6,18.8,5.1l9.5,2c1.6,0.4,3.2,0.6,4.8,0.8l4.8,0.7c1.6,0.2,3.2,0.5,4.8,0.7l4.8,0.5c3.2,0.3,6.4,0.7,9.7,0.8   c3.2,0.1,6.5,0.4,9.7,0.5l9.7,0c1.6,0,3.2-0.1,4.9-0.2l4.8-0.2c1.6-0.1,3.2-0.1,4.8-0.3l4.8-0.5l4.8-0.5c0.8-0.1,1.6-0.2,2.4-0.3   l2.4-0.4l9.6-1.5l-9.6,1.2L707.8,849.1z" style="fill: #67288C;"/>
	<path class="st0" d="M500.5,693.2c1.9,9.8,4.9,19.4,8.5,28.6c3.6,9.3,8.2,18.1,13.3,26.7c5.2,8.5,11.1,16.5,17.5,24.1   c6.5,7.5,13.6,14.5,21.1,21c7.6,6.3,15.8,12,24.2,17.2c8.5,5,17.5,9.3,26.7,12.8c-4.5-2.1-9-4-13.3-6.4c-4.4-2.2-8.6-4.8-12.8-7.3   c-8.3-5.4-16.1-11.2-23.5-17.7c-7.3-6.6-14.2-13.6-20.4-21.1c-6.2-7.6-11.9-15.6-16.8-24c-1.3-2.1-2.4-4.3-3.5-6.4l-1.7-3.2   l-1.6-3.3l-1.6-3.3c-0.5-1.1-1.1-2.2-1.5-3.3l-2.8-6.8c-3.4-9.1-6.2-18.5-8-28.1c-1.7-9.6-2.8-19.3-3.1-29.1   c-0.2-9.8,0.3-19.5,1.4-29.2c1.2-9.7,3-19.3,5.4-28.8c2.5-9.4,5.6-18.7,9.2-27.8c0.9-2.3,1.9-4.5,2.9-6.7l1.5-3.4l1.6-3.3   c1.1-2.2,2.1-4.4,3.3-6.6l3.5-6.4c0.6-1.1,1.2-2.1,1.9-3.2l1.9-3.1l1.9-3.1l2-3c1.4-2,2.7-4.1,4.1-6.1l4.4-5.9   c0.7-1,1.5-1.9,2.3-2.9l2.4-2.8l2.4-2.8c0.8-0.9,1.7-1.8,2.5-2.7c1.7-1.8,3.3-3.6,5-5.3l5.3-5.1c7.3-6.6,15-12.6,23.3-17.8   c8.3-5.2,17.1-9.5,26.3-13c4.7-1.5,9.3-3.2,14.1-4.2c4.7-1.4,9.6-2,14.5-2.9c-4.9,0.7-9.8,1.2-14.6,2.3c-4.9,0.9-9.6,2.5-14.3,3.8   c-9.4,3.2-18.4,7.4-27,12.4c-8.5,5.1-16.5,11.1-24,17.6l-5.5,5.1c-1.8,1.7-3.5,3.5-5.2,5.3c-0.9,0.9-1.7,1.8-2.6,2.7l-2.4,2.8   l-2.4,2.8c-0.8,0.9-1.6,1.9-2.4,2.9c-6.3,7.7-11.8,16-16.9,24.5l-3.6,6.5c-1.2,2.2-2.3,4.4-3.4,6.6l-1.7,3.3l-1.5,3.4   c-1,2.3-2.1,4.5-3,6.8c-3.8,9.2-6.9,18.7-9.5,28.3c-2.5,9.6-4.3,19.4-5.6,29.3c-1.1,9.9-1.6,19.9-1.4,29.8   C497.6,673.4,498.6,683.4,500.5,693.2z" style="fill: #67288C;"/>
	<path class="st0" d="M922.2,748c0-0.1,0-0.2-0.1-0.4c0-0.1-0.1-0.2-0.1-0.3c-0.2-0.4-0.4-0.7-0.7-0.9c-0.1-0.1-0.1-0.1-0.2-0.2   c0,0,0,0,0,0c-0.1-0.1-0.1-0.1-0.2-0.1c0,0-0.1,0-0.1-0.1c-0.1,0-0.2-0.1-0.2-0.1c-0.2-0.1-0.5-0.1-0.7-0.1c-0.1,0-0.2,0-0.3,0   c0,0,0,0-0.1,0c-19.1,2.5-37.2,5.5-54.3,8.8c1.1-3.2,1.4-8.5-0.7-16.9c-4.1-15.5-17.5-27-27.2-35.3c-4.8-4.1-10.2-8.7-10.6-11.3   c-0.5-3.2,3.3-7.7,8.5-13.3c4.6-5.1,11.5-12.7,14.9-21.5c3.7-9,9.5-11.3,12.6-12.6c2.4-1,4.1-1.9,4.6-3.7c0.6-1.6-0.2-3-0.9-4   c-1.3-2.2-4.9-5.4-15.1-3c-8.6,2-19.8,7.7-30.8,15.5c-9.6,6.8-15.2,10-18.8,10.9c-4.1,1-6.2-1-9.5-8.6c-1.4-3.1-3.9-6.7-6.7-10.5   l-1.4-2c-6.4-9.1-13.6-19.3-9.2-28.4l2.2-5.6c1.3-2.7,0.8-5.9-1.2-8c-2.5-3.2-7.2-4.8-11.1-3.9c-0.9,0.2-1.7,0.6-2.4,1   c-0.3,0.1-0.7,0.4-0.9,0.7c-1.9,1.4-8,6.6-12,17.9c-5.3,15-4.3,34,2.8,56.3l0.1,0.4l0,0.1c0,0.1,0.9,1.4,0.1,3   c-0.3,0.6-2,3.5-10.7,5.5c-3.4,0.8-6.9,1.6-10,2.6c-1.7,0.4-3.4,0.9-5,1.3c-1.6,0.4-3.3,0.9-5,1.3c-8.6,2-18.7,3.8-28.6,1.3   c-2.5-0.6-4.7-0.7-6.4-0.3c-3.9,0.9-6.1,3.9-6.2,8.3c-0.1,7.3,6.2,16.7,18.1,19.9c17.5,4.9,38.4,6,52.2,2.8c1.2-0.3,2.3-0.5,3.5-1   c1.5,0.4,3.2,2.9,3.2,8.7c-0.1,1.4,0,3.3,0.1,6.2c0.3,8.7,1,29-4.3,37.9c-2,3.3-4.5,6.1-6.8,8.7c-3.7,4-6.5,7.4-6,10.9   c0.1,1.2,0.7,2.2,1.7,3.2c-21.2,7.9-38.2,15.5-50.8,21.6c-18.5-7.8-35.1-18.7-48.8-32.4c-23-22.8-38.6-54.1-43.9-88.1   c-5.4-34-0.2-68.6,14.6-97.4c14.8-28.8,39.9-53.1,70.7-68.6c30.8-15.4,65.3-21,97.2-15.6c1.3,0.2,2.5-0.6,2.8-1.9   c0.3-1.3-0.4-2.6-1.6-3c-61.1-20.2-132-6.1-180.7,36.1c-34.5,29.9-56.7,73-62.5,118.1c0.6-18.3,3.9-36.8,9.8-54.9   c11.8-36.4,32.9-67.8,61.1-90.8c28.2-23,63.2-37.3,101.3-41.5c38.1-4.2,75.4,2.2,107.9,18.5c1.2,0.6,2.6,0.2,3.3-1   c0.7-1.1,0.3-2.6-0.7-3.3c-32.2-22-70.1-36-109.7-40.6c-40.2-4.6-80.1,0.8-115.4,15.7c-35.9,15.2-67.3,40.6-90.8,73.3   c-11.7,16.3-20.9,33.8-27.4,51.8c11.4-49.2,37.6-95.2,74.7-129.4c51.3-47.3,123.5-71.8,193.1-65.6c1.3,0.1,2.5-0.8,2.7-2.1   c0.2-1.3-0.7-2.6-2-2.8c-42.8-8.7-83.3-11.8-120.3-9c-43,3.2-81.4,14.2-114.1,32.9c-58.3,33.2-101.3,93.7-114.8,161.6   c-14.2,71.2,3.7,147.8,49.2,210.1c21.2,29,46.9,53,76.3,71.3c31,19.2,64.5,30.9,99.6,34.9c8.9,1,17.8,1.5,26.7,1.5   c67.2,0,134.5-28.3,180.7-77.1c9.7-4.1,18.4-8.4,26.1-12.6c40.4-22,63.5-46.7,65.1-48.5c0.1-0.1,0.2-0.2,0.3-0.3   c0.1-0.1,0.1-0.2,0.2-0.3c0.1-0.2,0.2-0.5,0.3-0.8c0-0.1,0-0.2,0-0.3C922.2,748.3,922.2,748.2,922.2,748z M749.2,777.4   c2.2-2.5,5-5.6,7-9.1c5.6-9,5.1-28,4.8-39.3l0-0.5c-0.1-2.1-0.2-4.5-0.1-6c0-6.7-2-9.8-3.8-11.2c-1.4-1.1-2.7-1.2-3.1-1.2   c-0.1,0-0.1,0-0.1,0l-0.6,0.1c-1.3,0.1-2.4,0.3-3.7,0.6c-13,3.1-33.6,2-50.1-2.7c-10.9-3-15.6-11.4-15.5-16.4   c0.1-2.6,1.2-4.1,3.3-4.6c1.3-0.3,3.1-0.2,4.6,0.2c10.6,2.6,21.3,0.8,30.4-1.4c3.3-0.8,6.7-1.6,10-2.6c1.7-0.4,3.4-0.9,5-1.3   s3.3-0.9,5-1.3c7-1.7,11.6-4.5,13.3-8.1c1.1-3,0.1-5.4-0.3-6.3c-6.8-21.3-7.9-39.2-3.1-53.3c3.9-11.6,10.4-16.1,11-16.5   c0.1,0,0.2-0.1,0.3-0.2c0.1-0.1,0.1-0.1,0.2-0.1l0.1,0c2.5-1.6,6.6-0.7,8.8,2c0.4,0.4,1.6,1.9,0.6,4.2L771,608   c-5.4,11.3,3.3,23.4,10.2,33.1c3.2,4.4,5.6,7.9,7,10.9c2.9,6.7,6.2,12.5,13.6,10.7c4.8-1.1,11.5-5.4,20.2-11.4   c11.1-7.8,21.6-13.1,29.6-15c5.7-1.3,9.8-0.8,11.2,1.4c0.6,1,0.6,1.4,0.6,1.4c-0.1,0.3-1.4,0.8-2,1.1c-0.2,0.1-0.4,0.2-0.6,0.3   l-0.1,0.1c-3.9,1.8-10.4,4.8-14.3,14.5c-3,7.7-8.7,14-13.7,19.6l-0.7,0.8c-5.5,6.1-10.3,11.3-9.5,16.4c0.7,3.8,5.6,8.1,11.9,13.5   l0.4,0.4c9.3,8,22.1,19.1,25.7,33.2c2.8,10.6,1.1,15,0.2,16.4c0,0.1-0.1,0.2-0.2,0.3c-1.9,0.4-3.8,0.8-5.6,1.2   c-0.6-0.5-1-1.1-1.2-1.8c-0.4-1.5-1.2-3.4-2.5-5.9c-3.5-6-8.9-10.7-15.4-13.3c-20.1-8.5-36.1-18.9-39.1-20.9l-0.1-0.1   c-0.4-0.5-0.9-0.3-1.4-0.2l-1.9,0.5c-0.5,0.1-0.9,0.4-1.2,0.8c-0.2,0.3-0.3,0.7-0.2,1c0.8,33-17.3,55.6-31.2,65.5h0   c-5.1,1.7-10,3.5-14.7,5.2c-1.4-0.7-2.1-1.5-2.1-2.3c-0.2-1.8,2.2-4.5,4.9-7.3L749.2,777.4z M795.6,718.5   c4.7,3.1,19.8,12.7,38.9,20.6c5.7,2.3,10.5,6.5,13.5,11.7c1,1.7,1.7,3.4,2.1,5c0.1,0.6,0.4,1.2,0.7,1.8   c-30.3,6.4-57.2,13.9-80.4,21.5C783.3,766.5,795.7,745.2,795.6,718.5z M697.7,813c13.2-6.2,30.6-13.7,51.8-21.5c0,0,0,0,0,0   c0.5,0,1-0.2,1.5-0.3c2-0.5,4.3-1.4,6.6-2.6c0,0,0,0,0,0c27.6-9.6,61.1-19.4,100.2-27.4c0,0,0,0,0,0c0.3,0,0.6-0.1,1-0.2   c0.2,0,0.3-0.1,0.5-0.1c9.6-2,19.6-3.8,29.9-5.5l-187,59.2l-4.8,1.5l-3,1l-12.4,3.9l-1.4,0.4c3.1-1.6,6.8-3.5,10.9-5.5   c0.8-0.4,1.5-0.8,2.3-1.1C695,814.3,696.3,813.7,697.7,813z M669.6,824.3l2.4,6.3c0.3,0.7,0.9,1.3,1.7,1.5c0.8,0.2,1.5,0.4,2.1,0.5   c13.3,1.7,26.1,2.4,38.4,2.4c27.8,0,53-3.8,75.2-9.7c9.8-1.9,19.2-4.8,28.3-8.5c-51.1,48.3-124.3,73.1-194.2,65.1   c-34.4-3.9-67.2-15.4-97.6-34.2c-28.9-17.9-54.1-41.4-74.9-70c-44.6-61.2-62.2-136.3-48.3-206.2C415.9,505,457.9,445.9,515,413.3   c32-18.2,69.7-29.1,112-32.2c8.7-0.6,17.5-1,26.6-1c19,0,38.9,1.4,59.4,4.3c-60,2.8-119.1,26.9-163.2,67.6   c-52.4,48.3-83.3,119.6-82.7,190.8c0,1.4,1.1,2.5,2.5,2.5c1.4,0,2.5-1,2.5-2.4c1.6-37.4,14.7-74.3,38-106.7   c23-32,53.6-56.8,88.7-71.7c34.5-14.6,73.5-19.9,112.8-15.4c27.8,3.2,54.7,11.2,79.4,23.3c-25.4-7.5-52.5-9.9-80.1-6.9   c-39,4.3-75,19-103.9,42.7c-28.9,23.6-50.6,55.8-62.7,93.2c-12.1,37.4-13.4,76.2-3.7,112.2c0.3,1.3,1.7,2.1,3,1.8   c1.3-0.3,2.2-1.6,1.9-2.9c-11.1-61.7,12.3-128,59.7-169.1c39.9-34.6,95.2-49.8,147.2-42c-23.9,0.7-48.1,6.9-70.5,18.1   c-31.7,15.9-57.6,41-72.9,70.8c-15.3,29.7-20.7,65.4-15.1,100.5c5.5,35,21.6,67.3,45.3,90.9c13.2,13.1,29,23.8,46.5,31.7   c-6.3,3.2-11.2,5.8-14.7,7.8C669.6,821.8,669.1,823.1,669.6,824.3z M854,794.3c-7.3,4-15.6,8.1-24.6,12l-4.4,1.8   c-11.1,4.6-23.4,8.8-36.8,12.4c-8,2.1-16.4,3.9-25.1,5.4c-5.6,0.9-11.3,1.7-17.1,2.4c-21,2.3-43.9,2.5-68.5-0.5l6-1.9l18.8-5.9   l3.4-1.1l5.1-1.6l200-63.3C900.9,763,881.6,779.2,854,794.3z" style="fill: #67288C;"/>
	<path class="st0" d="M782.5,670.4c-0.4-1.6-1.3-2.9-2.7-3.8c-1.4-0.8-3-1.1-4.6-0.7c-1.6,0.4-2.9,1.3-3.8,2.7c-0.6,1-0.9,2-0.9,3.2   c0,0.5,0.1,1,0.2,1.4c0.7,2.8,3.2,4.7,5.9,4.7c0.5,0,0.9,0,1.4-0.2c1.6-0.4,2.9-1.3,3.8-2.7C782.6,673.6,782.9,672,782.5,670.4z    M777.3,674c-1.4,0.3-2.5-0.6-2.8-1.7c-0.1-0.6,0-1.3,0.3-1.8c0.3-0.5,0.9-0.9,1.5-1c0.2-0.1,0.4-0.1,0.6-0.1   c0.3,0,0.6,0.1,0.9,0.2c0.6,0.3,1.1,1,1.3,1.7C779.4,672.6,778.4,673.8,777.3,674z" style="fill: #67288C;"/>
	<path class="st0" d="M768.8,691.1c-0.4-1.6-1.3-2.9-2.7-3.8c-1.4-0.8-3-1.1-4.6-0.7c-1.6,0.4-2.9,1.3-3.8,2.7   c-0.8,1.4-1.1,3-0.7,4.6c0.4,1.6,1.3,2.9,2.7,3.8c1,0.6,2,0.9,3.2,0.9c0.5,0,1,0,1.4-0.2c1.6-0.4,2.9-1.3,3.8-2.7   C768.9,694.3,769.2,692.7,768.8,691.1z M764.9,693.7c-0.3,0.6-0.8,0.9-1.5,1.1c-1.4,0.3-2.5-0.6-2.8-1.7c-0.3-1.1,0.6-2.5,1.7-2.8   c0.2,0,0.4-0.1,0.5-0.1c1.1,0,2,0.8,2.3,1.8C765.3,692.5,765.2,693.2,764.9,693.7z" style="fill: #67288C;"/>
	<path class="st0" d="M792.5,687.3c-1.1-4.8-5.9-7.7-10.7-6.6c-4.8,1.1-7.7,5.9-6.6,10.7c1,4.1,4.6,6.8,8.6,6.8c0.7,0,1.4-0.1,2-0.2   C790.7,696.8,793.6,692,792.5,687.3z M788.2,691.8c-0.7,1.1-1.9,2-3.2,2.3c-2.8,0.7-5.5-1-6.2-3.8c-0.3-1.3-0.1-2.7,0.6-3.9   c0.7-1.2,1.9-2,3.2-2.3c0.4-0.1,0.8-0.2,1.2-0.2c2.3,0,4.4,1.6,5,4C789.1,689.3,788.9,690.7,788.2,691.8z" style="fill: #67288C;"/>
	<path class="st0" d="M783.8,706c-0.4-1.6-1.4-3-2.7-3.9c-1.4-0.9-3-1.2-4.6-0.8c-3.2,0.8-5.3,4-4.5,7.3c0.4,1.6,1.3,3,2.7,3.9   c1,0.7,2.1,1,3.3,1c0.5,0,0.9,0,1.3-0.2c1.6-0.4,2.9-1.3,3.8-2.7C783.9,709.2,784.2,707.5,783.8,706z M778.5,709.6   c-0.6,0.2-1.3,0-1.8-0.3c-0.5-0.3-0.9-0.8-1-1.4c-0.1-0.5,0-1.2,0.3-1.7c0.4-0.6,0.9-1,1.4-1.1c0.2,0,0.4-0.1,0.5-0.1   c1.1,0,2,0.8,2.3,1.8c0,0.1,0,0.3,0,0.4C780.2,708.3,779.5,709.4,778.5,709.6z" style="fill: #67288C;"/>
	<path class="st0" d="M808,695.8c-0.4-1.6-1.3-2.9-2.7-3.8c-1.4-0.8-3-1.1-4.6-0.7c-1.6,0.4-2.9,1.3-3.8,2.7c-0.8,1.4-1.1,3-0.7,4.6   c0.4,1.6,1.3,2.9,2.7,3.8c1,0.6,2.1,0.9,3.2,0.9c0.5,0,1-0.1,1.4-0.2c1.6-0.4,2.9-1.3,3.8-2.7C808.1,699,808.4,697.4,808,695.8z    M802.6,699.5c-1.4,0.3-2.5-0.6-2.8-1.7c-0.2-0.6,0-1.3,0.3-1.8c0.3-0.5,0.8-0.9,1.4-1c0.2,0,0.3-0.1,0.5-0.1   c0.4,0,0.9,0.1,1.3,0.4c0.5,0.3,0.9,0.8,1,1.4c0,0.2,0.1,0.4,0.1,0.6C804.5,698.3,803.8,699.2,802.6,699.5z" style="fill: #67288C;"/>
	<path class="st0" d="M809,675.8c-0.4-1.6-1.3-2.9-2.7-3.8c-1.4-0.8-3-1.1-4.6-0.7c-1.6,0.4-2.9,1.3-3.8,2.7c-0.9,1.4-1.1,3-0.7,4.6   c0.2,1.5,1.1,2.8,2.4,3.7c1,0.7,2.2,1,3.4,1c0.5,0,1,0,1.5-0.2c1.6-0.4,2.9-1.3,3.8-2.7C809.2,679.1,809.4,677.4,809,675.8z    M805.1,678.5c-0.3,0.5-0.9,0.9-1.4,1c-1.4,0.3-2.5-0.6-2.8-1.8c-0.2-0.5-0.2-1.1,0.1-1.5c0.3-0.6,0.9-1,1.7-1.2   c1.4-0.3,2.6,0.6,2.8,1.7C805.5,677.3,805.4,678,805.1,678.5z" style="fill: #67288C;"/>
	<path class="st0" d="M698.9,697.3c-0.5-0.3-1.2-0.4-1.8-0.3c-1.3,0.3-2.1,1.6-1.8,2.9c0.3,1.1,1.2,1.9,2.3,1.9c0.2,0,0.4,0,0.5-0.1   c1.3-0.3,2.1-1.6,1.8-2.9C699.8,698.2,699.4,697.6,698.9,697.3z" style="fill: #67288C;"/>
	<path class="st0" d="M715.4,698c-0.5-0.3-1.2-0.4-1.8-0.3c-0.6,0.2-1.2,0.5-1.5,1.1c-0.3,0.5-0.4,1.2-0.3,1.8   c0.3,1.1,1.2,1.9,2.3,1.9c0.2,0,0.4,0,0.6-0.1c1.3-0.3,2.1-1.6,1.8-2.9C716.4,698.9,716,698.4,715.4,698z" style="fill: #67288C;"/>
	<path class="st0" d="M730.4,697.1c-0.2,0-0.4,0-0.6,0.1c-0.6,0.1-1.2,0.5-1.5,1.1c-0.3,0.5-0.4,1.2-0.3,1.8   c0.3,1.1,1.2,1.9,2.3,1.9c0.2,0,0.4,0,0.5-0.1c0.6-0.2,1.2-0.5,1.5-1.1c0.3-0.5,0.4-1.2,0.3-1.8   C732.5,697.9,731.5,697.1,730.4,697.1z" style="fill: #67288C;"/>
	<path class="st0" d="M746.1,694.1c-0.2,0-0.4,0-0.5,0.1c-0.6,0.2-1.2,0.5-1.5,1.1c-0.3,0.5-0.4,1.2-0.3,1.8   c0.1,0.6,0.5,1.2,1.1,1.5c0.4,0.2,0.8,0.4,1.2,0.4c0.2,0,0.4,0,0.6-0.1c0.6-0.1,1.2-0.5,1.5-1.1c0.3-0.6,0.4-1.2,0.3-1.8   C748.2,694.8,747.2,694.1,746.1,694.1z" style="fill: #67288C;"/>
	<path class="st0" d="M757.2,777.6c0.4,0.2,0.8,0.4,1.2,0.4c0.2,0,0.4,0,0.6-0.1c0.6-0.1,1.2-0.5,1.5-1.1c0.3-0.5,0.4-1.2,0.3-1.8   c-0.3-1.1-1.2-1.8-2.3-1.8c-0.2,0-0.4,0-0.6,0.1c-0.6,0.1-1.1,0.5-1.5,1.1c-0.3,0.6-0.4,1.2-0.3,1.8   C756.2,776.7,756.6,777.3,757.2,777.6z" style="fill: #67288C;"/>
	<path class="st0" d="M768.4,757c-0.6-0.3-1.2-0.4-1.8-0.3c-0.6,0.2-1.2,0.5-1.5,1.1c-0.3,0.5-0.4,1.2-0.3,1.8   c0.3,1.1,1.3,1.8,2.4,1.8c0.2,0,0.4,0,0.5-0.1c1.3-0.3,2.1-1.6,1.8-2.9C769.3,757.9,769,757.4,768.4,757z" style="fill: #67288C;"/>
	<path class="st0" d="M768.6,658.4c0.4,0.2,0.8,0.3,1.3,0.3c0.2,0,0.4,0,0.6-0.1c1.3-0.3,2.1-1.6,1.8-2.9c-0.3-1.1-1.2-1.9-2.3-1.9   c-0.2,0-0.4,0-0.6,0.1c-0.6,0.2-1.2,0.5-1.5,1.1c-0.3,0.5-0.5,1.2-0.3,1.8C767.6,657.5,768,658,768.6,658.4z" style="fill: #67288C;"/>
	<path class="st0" d="M760.5,614.2c0.4,0.2,0.8,0.4,1.2,0.4c0.2,0,0.4,0,0.6-0.1c0.6-0.1,1.2-0.5,1.5-1.1c0.3-0.5,0.4-1.2,0.3-1.8   c-0.2-0.6-0.5-1.2-1.1-1.5c-0.4-0.2-0.8-0.4-1.3-0.4c-0.2,0-0.4,0-0.6,0.1c-0.6,0.2-1.1,0.5-1.5,1.1s-0.4,1.2-0.3,1.8   C759.6,613.3,760,613.9,760.5,614.2z" style="fill: #67288C;"/>
	<path class="st0" d="M759.4,630c0.4,0.2,0.8,0.4,1.3,0.4c0.2,0,0.4,0,0.6-0.1c1.3-0.3,2.1-1.6,1.8-2.9c-0.2-0.6-0.5-1.2-1.1-1.5   c-0.5-0.3-1.2-0.4-1.8-0.3c-0.6,0.1-1.2,0.5-1.5,1.1c-0.3,0.5-0.4,1.2-0.3,1.8C758.5,629.1,758.8,629.6,759.4,630z" style="fill: #67288C;"/>
	<path class="st0" d="M763.5,640.1c-1.3,0.3-2.1,1.6-1.8,2.9c0.3,1.1,1.2,1.8,2.3,1.8c0.2,0,0.4,0,0.5-0.1c0.6-0.1,1.2-0.5,1.5-1.1   c0.3-0.5,0.4-1.2,0.3-1.8c-0.1-0.6-0.5-1.2-1.1-1.5C764.8,640,764.2,639.9,763.5,640.1z" style="fill: #67288C;"/>
	<path class="st0" d="M773.1,739.3c-0.5-0.3-1.2-0.4-1.8-0.3c-1.3,0.3-2.1,1.6-1.8,2.9c0.1,0.6,0.5,1.2,1.1,1.5   c0.4,0.2,0.8,0.4,1.2,0.4c0.2,0,0.4,0,0.6-0.1c0.6-0.2,1.2-0.5,1.5-1.1c0.3-0.5,0.4-1.2,0.3-1.8C774,740.2,773.6,739.7,773.1,739.3   z" style="fill: #67288C;"/>
	<path class="st0" d="M775.5,722.4c-0.5-0.3-1.2-0.4-1.8-0.3c-1.3,0.3-2.1,1.6-1.8,2.9c0.3,1.1,1.2,1.8,2.3,1.8c0.2,0,0.4,0,0.5-0.1   c0.6-0.2,1.2-0.5,1.5-1.1c0.3-0.5,0.5-1.2,0.3-1.8C776.4,723.2,776,722.7,775.5,722.4z" style="fill: #67288C;"/>
	<path class="st0" d="M852.2,743.1c0.4,0.2,0.8,0.4,1.3,0.4c0.2,0,0.4,0,0.6-0.1c0.6-0.1,1.1-0.5,1.5-1.1c0.3-0.6,0.4-1.2,0.3-1.8   c-0.1-0.6-0.5-1.2-1.1-1.5c-0.4-0.2-0.8-0.4-1.2-0.4c-0.2,0-0.4,0-0.6,0.1c-0.6,0.1-1.2,0.5-1.5,1.1c-0.3,0.5-0.5,1.2-0.3,1.8   C851.3,742.3,851.7,742.8,852.2,743.1z" style="fill: #67288C;"/>
	<path class="st0" d="M840.5,729.1c0.4,0.2,0.8,0.4,1.3,0.4c0.2,0,0.4,0,0.6-0.1c0.6-0.1,1.2-0.5,1.5-1.1c0.3-0.5,0.4-1.2,0.3-1.8   c-0.2-0.6-0.5-1.2-1.1-1.5c-0.4-0.2-0.8-0.4-1.3-0.4c-0.2,0-0.4,0-0.5,0.1c-0.6,0.2-1.1,0.5-1.5,1.1c-0.3,0.5-0.4,1.2-0.3,1.8   C839.5,728.2,839.9,728.7,840.5,729.1z" style="fill: #67288C;"/>
	<path class="st0" d="M814.9,709.9c0.4,0.2,0.8,0.4,1.3,0.4c0.2,0,0.4,0,0.6-0.1c0.6-0.1,1.2-0.5,1.5-1.1c0.3-0.5,0.5-1.2,0.3-1.8   c-0.3-1.3-1.6-2.1-2.9-1.8c-0.6,0.2-1.2,0.5-1.5,1.1c-0.3,0.5-0.4,1.2-0.3,1.8C813.9,709,814.3,709.5,814.9,709.9z" style="fill: #67288C;"/>
	<path class="st0" d="M828.5,720.2c0.2,0,0.4,0,0.5-0.1c0.6-0.1,1.2-0.5,1.5-1.1c0.3-0.5,0.5-1.2,0.3-1.8c-0.3-1.1-1.2-1.9-2.3-1.9   c-0.2,0-0.4,0-0.6,0.1c-0.6,0.2-1.2,0.5-1.5,1.1c-0.3,0.5-0.4,1.2-0.3,1.8C826.4,719.4,827.4,720.2,828.5,720.2z" style="fill: #67288C;"/>
	<path class="st0" d="M817.4,673.4c0.2,0,0.4,0,0.5-0.1c0.6-0.2,1.2-0.5,1.5-1.1c0.3-0.5,0.4-1.2,0.3-1.8c-0.3-1.3-1.6-2.1-2.9-1.8   c-0.6,0.1-1.2,0.5-1.5,1.1c-0.3,0.6-0.4,1.2-0.3,1.8C815.3,672.6,816.3,673.4,817.4,673.4z" style="fill: #67288C;"/>
	<path class="st0" d="M827,662.9c0.4,0.2,0.8,0.4,1.3,0.4c0.2,0,0.4,0,0.6-0.1c0.6-0.2,1.1-0.5,1.5-1.1c0.3-0.5,0.4-1.2,0.3-1.8   c-0.2-0.6-0.5-1.2-1.1-1.5c-0.5-0.3-1.2-0.4-1.8-0.3c-0.6,0.1-1.1,0.5-1.5,1.1c-0.3,0.5-0.4,1.2-0.3,1.8   C826.1,662,826.5,662.6,827,662.9z" style="fill: #67288C;"/>
	<path class="st0" d="M837.6,651.3c0.4,0.2,0.8,0.4,1.3,0.4c0.2,0,0.4,0,0.6-0.1c0.6-0.2,1.2-0.5,1.5-1.1c0.3-0.5,0.4-1.2,0.3-1.8   c-0.1-0.6-0.5-1.2-1.1-1.5c-0.6-0.3-1.2-0.4-1.8-0.3c-0.6,0.1-1.2,0.5-1.5,1.1c-0.3,0.5-0.5,1.2-0.3,1.8   C836.6,650.5,837,651,837.6,651.3z" style="fill: #67288C;"/>
	<path class="st0" d="M848.8,643.8c0.4,0.2,0.8,0.4,1.3,0.4c0.2,0,0.4,0,0.6-0.1c0.6-0.2,1.2-0.5,1.5-1.1c0.3-0.5,0.4-1.2,0.3-1.8   c-0.2-0.6-0.5-1.2-1.1-1.5c-0.4-0.2-0.8-0.4-1.3-0.4c-0.2,0-0.4,0-0.5,0.1c-0.6,0.1-1.1,0.5-1.5,1.1c-0.3,0.6-0.4,1.2-0.3,1.8   C847.9,642.9,848.3,643.5,848.8,643.8z" style="fill: #67288C;"/>
</g>

			</g>
		</svg>
	